<svg width="655" height="444" viewBox="0 0 655 444" fill="none" xmlns="http://www.w3.org/2000/svg">
<line x1="2" y1="69" x2="159" y2="69" stroke="#1E1E1E" stroke-width="4" stroke-linecap="round"/>
<line x1="221" y1="69" x2="653" y2="69" stroke="#FC73B5" stroke-width="4" stroke-linecap="round"/>
<line x1="2" y1="303" x2="653" y2="303" stroke="#FC73B5" stroke-width="4" stroke-linecap="round"/>
<line x1="79" y1="193" x2="79" y2="73" stroke="#FC73B5" stroke-width="4" stroke-linecap="round"/>
<line x1="438" y1="107" x2="438" y2="73" stroke="#1E1E1E" stroke-width="4" stroke-linecap="round"/>
<line x1="330" y1="395" x2="330" y2="307" stroke="#FC73B5" stroke-width="4" stroke-linecap="round"/>
<line x1="552" y1="350" x2="552" y2="307" stroke="#FC73B5" stroke-width="4" stroke-linecap="round"/>
<line x1="286" y1="327" x2="286" y2="307" stroke="#FC73B5" stroke-width="4" stroke-linecap="round"/>
<line x1="612" y1="327" x2="612" y2="307" stroke="#FC73B5" stroke-width="4" stroke-linecap="round"/>
<line x1="34" y1="327" x2="34" y2="307" stroke="#FC73B5" stroke-width="4" stroke-linecap="round"/>
<line x1="93" y1="350" x2="93" y2="307" stroke="#FC73B5" stroke-width="4" stroke-linecap="round"/>
<line x1="194" y1="442" x2="194" y2="307" stroke="#FC73B5" stroke-width="4" stroke-linecap="round"/>
<line x1="506" y1="442" x2="506" y2="307" stroke="#FC73B5" stroke-width="4" stroke-linecap="round"/>
<line x1="446" y1="420" x2="446" y2="307" stroke="#FC73B5" stroke-width="4" stroke-linecap="round"/>
<path d="M242.968 38H239.544V34.768L239.928 34.928C239.181 36.0587 238.147 36.944 236.824 37.584C235.523 38.2027 234.061 38.512 232.44 38.512C230.755 38.512 229.197 38.224 227.768 37.648C226.339 37.0507 225.091 36.2187 224.024 35.152C222.957 34.0853 222.125 32.8267 221.528 31.376C220.952 29.904 220.664 28.2933 220.664 26.544C220.664 24.8373 220.963 23.2587 221.56 21.808C222.157 20.3573 223 19.0987 224.088 18.032C225.176 16.944 226.456 16.1013 227.928 15.504C229.4 14.9067 231 14.608 232.728 14.608C234.733 14.608 236.547 15.0027 238.168 15.792C239.811 16.56 241.144 17.6053 242.168 18.928L239.704 21.392C238.936 20.304 237.955 19.4507 236.76 18.832C235.587 18.192 234.243 17.872 232.728 17.872C231.149 17.872 229.731 18.256 228.472 19.024C227.235 19.7707 226.264 20.7947 225.56 22.096C224.856 23.3973 224.504 24.88 224.504 26.544C224.504 28.2293 224.856 29.7333 225.56 31.056C226.285 32.3787 227.267 33.4133 228.504 34.16C229.763 34.9067 231.203 35.28 232.824 35.28C234.424 35.28 235.843 34.9387 237.08 34.256C238.339 33.552 239.245 32.5813 239.8 31.344L239.512 32.592V28.72H232.536V25.712H242.968V38ZM259.821 33.168L261.869 35.408C261.037 36.368 260.003 37.1253 258.765 37.68C257.528 38.2347 256.152 38.512 254.637 38.512C252.845 38.512 251.256 38.1493 249.869 37.424C248.504 36.6987 247.427 35.696 246.637 34.416C245.869 33.136 245.485 31.6747 245.485 30.032C245.485 28.368 245.859 26.896 246.605 25.616C247.352 24.336 248.376 23.3333 249.677 22.608C250.979 21.8827 252.44 21.52 254.061 21.52C255.64 21.52 257.037 21.8827 258.253 22.608C259.469 23.312 260.429 24.2933 261.133 25.552C261.837 26.7893 262.189 28.2293 262.189 29.872V30.064H258.637V29.712C258.637 28.6453 258.435 27.7173 258.029 26.928C257.645 26.1173 257.112 25.4987 256.429 25.072C255.747 24.624 254.947 24.4 254.029 24.4C253.069 24.4 252.216 24.6347 251.469 25.104C250.744 25.552 250.179 26.192 249.773 27.024C249.368 27.8347 249.165 28.816 249.165 29.968C249.165 31.12 249.4 32.1227 249.869 32.976C250.36 33.8293 251.021 34.4907 251.853 34.96C252.707 35.408 253.688 35.632 254.797 35.632C256.824 35.632 258.499 34.8107 259.821 33.168ZM262.189 31.152H247.981V28.72H261.677L262.189 29.904V31.152ZM280.187 38H276.603V28.784C276.603 27.3547 276.283 26.288 275.643 25.584C275.003 24.88 274.139 24.528 273.051 24.528C272.261 24.528 271.515 24.7307 270.811 25.136C270.128 25.5413 269.573 26.1813 269.147 27.056C268.72 27.9307 268.507 29.0613 268.507 30.448V38H264.923V22.032H268.475V26.96H267.995C268.208 25.552 268.624 24.464 269.243 23.696C269.861 22.9067 270.587 22.352 271.419 22.032C272.251 21.6907 273.104 21.52 273.979 21.52C275.899 21.52 277.413 22.1067 278.523 23.28C279.632 24.4533 280.187 26.16 280.187 28.4V38ZM297.01 33.168L299.058 35.408C298.226 36.368 297.191 37.1253 295.954 37.68C294.717 38.2347 293.341 38.512 291.826 38.512C290.034 38.512 288.445 38.1493 287.058 37.424C285.693 36.6987 284.615 35.696 283.826 34.416C283.058 33.136 282.674 31.6747 282.674 30.032C282.674 28.368 283.047 26.896 283.794 25.616C284.541 24.336 285.565 23.3333 286.866 22.608C288.167 21.8827 289.629 21.52 291.25 21.52C292.829 21.52 294.226 21.8827 295.442 22.608C296.658 23.312 297.618 24.2933 298.322 25.552C299.026 26.7893 299.378 28.2293 299.378 29.872V30.064H295.826V29.712C295.826 28.6453 295.623 27.7173 295.218 26.928C294.834 26.1173 294.301 25.4987 293.618 25.072C292.935 24.624 292.135 24.4 291.218 24.4C290.258 24.4 289.405 24.6347 288.658 25.104C287.933 25.552 287.367 26.192 286.962 27.024C286.557 27.8347 286.354 28.816 286.354 29.968C286.354 31.12 286.589 32.1227 287.058 32.976C287.549 33.8293 288.21 34.4907 289.042 34.96C289.895 35.408 290.877 35.632 291.986 35.632C294.013 35.632 295.687 34.8107 297.01 33.168ZM299.378 31.152H285.17V28.72H298.866L299.378 29.904V31.152ZM311.584 21.744V25.072H310.816C309.834 25.072 308.96 25.2853 308.192 25.712C307.424 26.1387 306.816 26.8 306.368 27.696C305.92 28.592 305.696 29.7653 305.696 31.216V38H302.112V22.032H305.664V27.184H305.184C305.397 25.7973 305.813 24.7093 306.432 23.92C307.05 23.1307 307.776 22.576 308.608 22.256C309.44 21.9147 310.272 21.744 311.104 21.744H311.584ZM327.933 38H324.637V34.832L324.477 34.16V28.176C324.477 26.9813 324.093 26.0533 323.325 25.392C322.557 24.7093 321.512 24.368 320.189 24.368C319.229 24.368 318.333 24.56 317.501 24.944C316.691 25.328 315.987 25.8613 315.389 26.544L313.341 24.304C314.216 23.4293 315.24 22.7467 316.413 22.256C317.587 21.7653 318.888 21.52 320.317 21.52C321.832 21.52 323.155 21.7867 324.285 22.32C325.437 22.832 326.333 23.5787 326.973 24.56C327.613 25.5413 327.933 26.7147 327.933 28.08V38ZM318.973 38.512C317.757 38.512 316.68 38.288 315.741 37.84C314.803 37.392 314.077 36.784 313.565 36.016C313.053 35.248 312.797 34.352 312.797 33.328C312.797 32.2187 313.117 31.28 313.757 30.512C314.397 29.7227 315.283 29.1253 316.413 28.72C317.565 28.2933 318.888 28.08 320.381 28.08H324.861V30.544H320.701C319.443 30.544 318.419 30.768 317.629 31.216C316.861 31.664 316.477 32.3253 316.477 33.2C316.477 33.9893 316.776 34.6187 317.373 35.088C317.971 35.536 318.749 35.76 319.709 35.76C320.627 35.76 321.469 35.568 322.237 35.184C323.005 34.8 323.613 34.2773 324.061 33.616C324.531 32.9333 324.797 32.1547 324.861 31.28L326.013 31.824C326.013 33.1253 325.715 34.288 325.117 35.312C324.52 36.3147 323.688 37.104 322.621 37.68C321.555 38.2347 320.339 38.512 318.973 38.512ZM334.634 38H331.05V14.96H334.634V38ZM341.588 38H338.004V22.032H341.588V38ZM339.796 18.736C339.177 18.736 338.644 18.5227 338.196 18.096C337.748 17.6693 337.524 17.1573 337.524 16.56C337.524 15.92 337.748 15.3867 338.196 14.96C338.644 14.5333 339.177 14.32 339.796 14.32C340.436 14.32 340.969 14.5333 341.396 14.96C341.844 15.3867 342.068 15.9093 342.068 16.528C342.068 17.1467 341.844 17.6693 341.396 18.096C340.969 18.5227 340.436 18.736 339.796 18.736ZM343.774 35.568L345.854 33.328C346.579 34.0747 347.432 34.6613 348.414 35.088C349.416 35.5147 350.462 35.728 351.55 35.728C352.659 35.728 353.544 35.5253 354.206 35.12C354.867 34.6933 355.198 34.1493 355.198 33.488C355.198 32.8907 354.899 32.432 354.302 32.112C353.726 31.7707 352.691 31.504 351.198 31.312C348.851 30.9707 347.144 30.4373 346.078 29.712C345.032 28.9653 344.51 27.9413 344.51 26.64C344.51 25.616 344.808 24.72 345.406 23.952C346.003 23.184 346.814 22.5867 347.838 22.16C348.862 21.7333 350.035 21.52 351.358 21.52C352.894 21.52 354.248 21.776 355.422 22.288C356.616 22.8 357.651 23.4933 358.526 24.368L356.446 26.64C355.784 25.9147 355.027 25.3387 354.174 24.912C353.32 24.4853 352.392 24.272 351.39 24.272C350.387 24.272 349.576 24.4747 348.958 24.88C348.339 25.264 348.03 25.7653 348.03 26.384C348.03 26.896 348.307 27.2907 348.862 27.568C349.438 27.824 350.44 28.048 351.87 28.24C354.216 28.5813 355.944 29.1467 357.054 29.936C358.163 30.704 358.718 31.8133 358.718 33.264C358.718 34.3093 358.408 35.2267 357.79 36.016C357.171 36.8053 356.318 37.424 355.23 37.872C354.142 38.2987 352.872 38.512 351.422 38.512C349.864 38.512 348.435 38.256 347.134 37.744C345.832 37.2107 344.712 36.4853 343.774 35.568ZM371.115 38H367.179C365.835 38 364.822 37.6587 364.139 36.976C363.456 36.272 363.115 35.2587 363.115 33.936V17.648H366.699V33.392C366.699 33.9467 366.827 34.3627 367.083 34.64C367.339 34.896 367.744 35.024 368.299 35.024H371.115V38ZM370.891 24.944H360.139V22.032H370.891V24.944Z" fill="#1E1E1E"/>
<path d="M20.288 265.728L22.752 268.192C21.7493 269.515 20.4373 270.571 18.816 271.36C17.216 272.128 15.4453 272.512 13.504 272.512C11.776 272.512 10.1867 272.213 8.736 271.616C7.30667 271.019 6.05867 270.187 4.992 269.12C3.94667 268.053 3.12533 266.795 2.528 265.344C1.952 263.872 1.664 262.283 1.664 260.576C1.664 258.848 1.96267 257.259 2.56 255.808C3.15733 254.336 3.98933 253.067 5.056 252C6.144 250.933 7.41333 250.101 8.864 249.504C10.3147 248.907 11.8933 248.608 13.6 248.608C15.5413 248.608 17.3013 249.003 18.88 249.792C20.4587 250.56 21.7493 251.605 22.752 252.928L20.288 255.392C19.5413 254.304 18.6027 253.451 17.472 252.832C16.3413 252.192 15.0507 251.872 13.6 251.872C12.064 251.872 10.688 252.256 9.472 253.024C8.256 253.771 7.296 254.795 6.592 256.096C5.888 257.397 5.536 258.891 5.536 260.576C5.536 262.24 5.888 263.723 6.592 265.024C7.296 266.325 8.256 267.36 9.472 268.128C10.688 268.875 12.064 269.248 13.6 269.248C15.0507 269.248 16.3413 268.928 17.472 268.288C18.6027 267.648 19.5413 266.795 20.288 265.728ZM40.2575 272H36.7055V268.928L36.6735 268.032V256.032H40.2575V272ZM36.9295 265.248L37.6655 265.856C37.7295 267.157 37.4948 268.309 36.9615 269.312C36.4282 270.315 35.6708 271.104 34.6895 271.68C33.7295 272.235 32.5988 272.512 31.2975 272.512C29.4202 272.512 27.9162 271.947 26.7855 270.816C25.6548 269.685 25.0895 268.053 25.0895 265.92V256.032H28.6735V265.568C28.6735 266.848 28.9935 267.829 29.6335 268.512C30.2735 269.173 31.1482 269.504 32.2575 269.504C33.0468 269.504 33.7722 269.323 34.4335 268.96C35.1162 268.597 35.6815 268.096 36.1295 267.456C36.5775 266.816 36.8442 266.08 36.9295 265.248ZM69.2423 272H65.6583V262.688C65.6583 261.301 65.3596 260.267 64.7623 259.584C64.1863 258.88 63.4076 258.528 62.4263 258.528C61.7009 258.528 61.0183 258.731 60.3783 259.136C59.7383 259.541 59.2156 260.171 58.8103 261.024C58.4263 261.877 58.2343 262.987 58.2343 264.352V272H54.6503V262.688C54.6503 261.301 54.3516 260.267 53.7543 259.584C53.1783 258.88 52.3996 258.528 51.4183 258.528C50.6929 258.528 49.9996 258.731 49.3383 259.136C48.6983 259.541 48.1756 260.171 47.7703 261.024C47.3863 261.877 47.1943 262.987 47.1943 264.352V272H43.6103V256.032H47.1623V259.712L46.9383 259.68C47.2369 258.613 47.6743 257.781 48.2503 257.184C48.8263 256.587 49.4769 256.16 50.2023 255.904C50.9276 255.648 51.6529 255.52 52.3783 255.52C53.7649 255.52 54.9169 255.904 55.8343 256.672C56.7516 257.419 57.3596 258.528 57.6583 260L57.2423 260.032C57.5623 258.901 58.0316 258.005 58.6503 257.344C59.2903 256.683 60.0156 256.213 60.8263 255.936C61.6369 255.659 62.4476 255.52 63.2583 255.52C65.1356 255.52 66.5969 256.107 67.6423 257.28C68.7089 258.453 69.2423 260.16 69.2423 262.4V272ZM87.3525 272H83.8005V268.928L83.7685 268.032V256.032H87.3525V272ZM84.0245 265.248L84.7605 265.856C84.8245 267.157 84.5898 268.309 84.0565 269.312C83.5232 270.315 82.7658 271.104 81.7845 271.68C80.8245 272.235 79.6938 272.512 78.3925 272.512C76.5152 272.512 75.0112 271.947 73.8805 270.816C72.7498 269.685 72.1845 268.053 72.1845 265.92V256.032H75.7685V265.568C75.7685 266.848 76.0885 267.829 76.7285 268.512C77.3685 269.173 78.2432 269.504 79.3525 269.504C80.1418 269.504 80.8672 269.323 81.5285 268.96C82.2112 268.597 82.7765 268.096 83.2245 267.456C83.6725 266.816 83.9392 266.08 84.0245 265.248ZM94.2893 272H90.7053V248.96H94.2893V272ZM112.027 272H108.731V268.832L108.571 268.16V262.176C108.571 260.981 108.187 260.053 107.419 259.392C106.651 258.709 105.606 258.368 104.283 258.368C103.323 258.368 102.427 258.56 101.595 258.944C100.784 259.328 100.08 259.861 99.483 260.544L97.435 258.304C98.3097 257.429 99.3337 256.747 100.507 256.256C101.68 255.765 102.982 255.52 104.411 255.52C105.926 255.52 107.248 255.787 108.379 256.32C109.531 256.832 110.427 257.579 111.067 258.56C111.707 259.541 112.027 260.715 112.027 262.08V272ZM103.067 272.512C101.851 272.512 100.774 272.288 99.835 271.84C98.8963 271.392 98.171 270.784 97.659 270.016C97.147 269.248 96.891 268.352 96.891 267.328C96.891 266.219 97.211 265.28 97.851 264.512C98.491 263.723 99.3763 263.125 100.507 262.72C101.659 262.293 102.982 262.08 104.475 262.08H108.955V264.544H104.795C103.536 264.544 102.512 264.768 101.723 265.216C100.955 265.664 100.571 266.325 100.571 267.2C100.571 267.989 100.87 268.619 101.467 269.088C102.064 269.536 102.843 269.76 103.803 269.76C104.72 269.76 105.563 269.568 106.331 269.184C107.099 268.8 107.707 268.277 108.155 267.616C108.624 266.933 108.891 266.155 108.955 265.28L110.107 265.824C110.107 267.125 109.808 268.288 109.211 269.312C108.614 270.315 107.782 271.104 106.715 271.68C105.648 272.235 104.432 272.512 103.067 272.512ZM124.91 272H120.974C119.63 272 118.617 271.659 117.934 270.976C117.251 270.272 116.91 269.259 116.91 267.936V251.648H120.494V267.392C120.494 267.947 120.622 268.363 120.878 268.64C121.134 268.896 121.539 269.024 122.094 269.024H124.91V272ZM124.686 258.944H113.934V256.032H124.686V258.944ZM130.963 272H127.379V256.032H130.963V272ZM129.171 252.736C128.552 252.736 128.019 252.523 127.571 252.096C127.123 251.669 126.899 251.157 126.899 250.56C126.899 249.92 127.123 249.387 127.571 248.96C128.019 248.533 128.552 248.32 129.171 248.32C129.811 248.32 130.344 248.533 130.771 248.96C131.219 249.387 131.443 249.909 131.443 250.528C131.443 251.147 131.219 251.669 130.771 252.096C130.344 252.523 129.811 252.736 129.171 252.736ZM143.261 272H139.773L132.925 256.032H136.669L142.045 269.664H141.053L146.461 256.032H150.077L143.261 272ZM164.826 267.168L166.874 269.408C166.042 270.368 165.008 271.125 163.77 271.68C162.533 272.235 161.157 272.512 159.642 272.512C157.85 272.512 156.261 272.149 154.874 271.424C153.509 270.699 152.432 269.696 151.642 268.416C150.874 267.136 150.49 265.675 150.49 264.032C150.49 262.368 150.864 260.896 151.61 259.616C152.357 258.336 153.381 257.333 154.682 256.608C155.984 255.883 157.445 255.52 159.066 255.52C160.645 255.52 162.042 255.883 163.258 256.608C164.474 257.312 165.434 258.293 166.138 259.552C166.842 260.789 167.194 262.229 167.194 263.872V264.064H163.642V263.712C163.642 262.645 163.44 261.717 163.034 260.928C162.65 260.117 162.117 259.499 161.434 259.072C160.752 258.624 159.952 258.4 159.034 258.4C158.074 258.4 157.221 258.635 156.474 259.104C155.749 259.552 155.184 260.192 154.778 261.024C154.373 261.835 154.17 262.816 154.17 263.968C154.17 265.12 154.405 266.123 154.874 266.976C155.365 267.829 156.026 268.491 156.858 268.96C157.712 269.408 158.693 269.632 159.802 269.632C161.829 269.632 163.504 268.811 164.826 267.168ZM167.194 265.152H152.986V262.72H166.682L167.194 263.904V265.152Z" fill="#1E1E1E"/>
<path d="M1.056 34.256L3.616 31.76C4.192 32.4853 4.87467 33.1147 5.664 33.648C6.47467 34.1813 7.33867 34.5867 8.256 34.864C9.19467 35.1413 10.176 35.28 11.2 35.28C12.3093 35.28 13.2693 35.1307 14.08 34.832C14.912 34.5333 15.5627 34.1067 16.032 33.552C16.5013 32.9973 16.736 32.3573 16.736 31.632C16.736 30.6507 16.288 29.872 15.392 29.296C14.5173 28.72 12.9707 28.2613 10.752 27.92C8.68267 27.6213 7.008 27.1947 5.728 26.64C4.448 26.0853 3.50933 25.3813 2.912 24.528C2.336 23.6747 2.048 22.672 2.048 21.52C2.048 20.1547 2.42133 18.96 3.168 17.936C3.936 16.8907 4.98133 16.08 6.304 15.504C7.648 14.9067 9.184 14.608 10.912 14.608C12.9173 14.608 14.688 14.992 16.224 15.76C17.7813 16.528 19.1147 17.552 20.224 18.832L17.728 21.328C16.896 20.24 15.9147 19.3867 14.784 18.768C13.6747 18.128 12.3947 17.808 10.944 17.808C9.42933 17.808 8.192 18.128 7.232 18.768C6.272 19.408 5.792 20.2613 5.792 21.328C5.792 21.904 5.97333 22.3947 6.336 22.8C6.69867 23.184 7.296 23.5147 8.128 23.792C8.98133 24.0693 10.112 24.3147 11.52 24.528C13.632 24.848 15.3387 25.3067 16.64 25.904C17.9627 26.5013 18.9333 27.2587 19.552 28.176C20.1707 29.0933 20.48 30.192 20.48 31.472C20.48 32.88 20.0853 34.1173 19.296 35.184C18.5067 36.2293 17.408 37.0507 16 37.648C14.592 38.224 12.9707 38.512 11.136 38.512C8.98133 38.512 7.06133 38.128 5.376 37.36C3.69067 36.592 2.25067 35.5573 1.056 34.256ZM27.0843 44.208H23.5003V22.032H27.0523V26.96H26.2843C26.4336 25.8933 26.8069 24.9547 27.4043 24.144C28.0016 23.3333 28.7696 22.6933 29.7083 22.224C30.6469 21.7547 31.6923 21.52 32.8443 21.52C34.3376 21.52 35.6816 21.8827 36.8763 22.608C38.0923 23.3333 39.0523 24.336 39.7563 25.616C40.4603 26.896 40.8123 28.3573 40.8123 30C40.8123 31.664 40.4496 33.136 39.7243 34.416C39.0203 35.696 38.0603 36.6987 36.8443 37.424C35.6283 38.1493 34.2523 38.512 32.7163 38.512C31.3083 38.512 30.0923 38.224 29.0683 37.648C28.0443 37.0507 27.2656 36.2507 26.7323 35.248C26.2203 34.224 26.0069 33.0827 26.0923 31.824L26.8283 31.248C26.9349 32.08 27.2229 32.816 27.6923 33.456C28.1616 34.096 28.7696 34.5973 29.5163 34.96C30.2629 35.3227 31.0736 35.504 31.9483 35.504C32.9936 35.504 33.8896 35.2693 34.6363 34.8C35.4043 34.3307 36.0016 33.68 36.4283 32.848C36.8549 32.016 37.0683 31.0667 37.0683 30C37.0683 28.9547 36.8656 28.016 36.4603 27.184C36.0549 26.352 35.4789 25.7013 34.7323 25.232C34.0069 24.7627 33.1429 24.528 32.1403 24.528C31.1589 24.528 30.2843 24.7733 29.5163 25.264C28.7696 25.7333 28.1723 26.3947 27.7243 27.248C27.2976 28.1013 27.0843 29.104 27.0843 30.256V44.208ZM57.1813 33.168L59.2293 35.408C58.3973 36.368 57.3626 37.1253 56.1253 37.68C54.8879 38.2347 53.5119 38.512 51.9973 38.512C50.2053 38.512 48.6159 38.1493 47.2293 37.424C45.8639 36.6987 44.7866 35.696 43.9973 34.416C43.2293 33.136 42.8453 31.6747 42.8453 30.032C42.8453 28.368 43.2186 26.896 43.9653 25.616C44.7119 24.336 45.7359 23.3333 47.0373 22.608C48.3386 21.8827 49.7999 21.52 51.4213 21.52C52.9999 21.52 54.3973 21.8827 55.6133 22.608C56.8293 23.312 57.7893 24.2933 58.4933 25.552C59.1973 26.7893 59.5493 28.2293 59.5493 29.872V30.064H55.9973V29.712C55.9973 28.6453 55.7946 27.7173 55.3893 26.928C55.0053 26.1173 54.4719 25.4987 53.7893 25.072C53.1066 24.624 52.3066 24.4 51.3893 24.4C50.4293 24.4 49.5759 24.6347 48.8293 25.104C48.1039 25.552 47.5386 26.192 47.1333 27.024C46.7279 27.8347 46.5253 28.816 46.5253 29.968C46.5253 31.12 46.7599 32.1227 47.2293 32.976C47.7199 33.8293 48.3813 34.4907 49.2133 34.96C50.0666 35.408 51.0479 35.632 52.1573 35.632C54.1839 35.632 55.8586 34.8107 57.1813 33.168ZM59.5493 31.152H45.3413V28.72H59.0373L59.5493 29.904V31.152ZM74.7948 33.104L77.0988 35.344C76.3094 36.3253 75.3388 37.104 74.1868 37.68C73.0348 38.2347 71.7121 38.512 70.2188 38.512C68.5761 38.512 67.1041 38.1493 65.8028 37.424C64.5228 36.6773 63.5094 35.6747 62.7628 34.416C62.0161 33.136 61.6428 31.664 61.6428 30C61.6428 28.3573 62.0161 26.9067 62.7628 25.648C63.5094 24.368 64.5334 23.3653 65.8348 22.64C67.1574 21.8933 68.6508 21.52 70.3148 21.52C71.7654 21.52 73.0561 21.7973 74.1868 22.352C75.3388 22.9067 76.3094 23.6853 77.0988 24.688L74.7948 26.928C74.3254 26.2027 73.7281 25.6267 73.0028 25.2C72.2988 24.752 71.4454 24.528 70.4428 24.528C69.4614 24.528 68.5868 24.7627 67.8188 25.232C67.0508 25.7013 66.4534 26.352 66.0268 27.184C65.6001 27.9947 65.3868 28.9333 65.3868 30C65.3868 31.0667 65.6001 32.016 66.0268 32.848C66.4534 33.68 67.0508 34.3307 67.8188 34.8C68.5868 35.2693 69.4614 35.504 70.4428 35.504C71.4454 35.504 72.2988 35.28 73.0028 34.832C73.7281 34.384 74.3254 33.808 74.7948 33.104ZM83.1018 38H79.5178V22.032H83.1018V38ZM81.3098 18.736C80.6911 18.736 80.1578 18.5227 79.7098 18.096C79.2618 17.6693 79.0378 17.1573 79.0378 16.56C79.0378 15.92 79.2618 15.3867 79.7098 14.96C80.1578 14.5333 80.6911 14.32 81.3098 14.32C81.9498 14.32 82.4831 14.5333 82.9098 14.96C83.3578 15.3867 83.5818 15.9093 83.5818 16.528C83.5818 17.1467 83.3578 17.6693 82.9098 18.096C82.4831 18.5227 81.9498 18.736 81.3098 18.736ZM100.84 38H97.5435V34.832L97.3835 34.16V28.176C97.3835 26.9813 96.9995 26.0533 96.2315 25.392C95.4635 24.7093 94.4182 24.368 93.0955 24.368C92.1355 24.368 91.2395 24.56 90.4075 24.944C89.5968 25.328 88.8928 25.8613 88.2955 26.544L86.2475 24.304C87.1222 23.4293 88.1462 22.7467 89.3195 22.256C90.4928 21.7653 91.7942 21.52 93.2235 21.52C94.7382 21.52 96.0608 21.7867 97.1915 22.32C98.3435 22.832 99.2395 23.5787 99.8795 24.56C100.52 25.5413 100.84 26.7147 100.84 28.08V38ZM91.8795 38.512C90.6635 38.512 89.5862 38.288 88.6475 37.84C87.7088 37.392 86.9835 36.784 86.4715 36.016C85.9595 35.248 85.7035 34.352 85.7035 33.328C85.7035 32.2187 86.0235 31.28 86.6635 30.512C87.3035 29.7227 88.1888 29.1253 89.3195 28.72C90.4715 28.2933 91.7942 28.08 93.2875 28.08H97.7675V30.544H93.6075C92.3488 30.544 91.3248 30.768 90.5355 31.216C89.7675 31.664 89.3835 32.3253 89.3835 33.2C89.3835 33.9893 89.6822 34.6187 90.2795 35.088C90.8768 35.536 91.6555 35.76 92.6155 35.76C93.5328 35.76 94.3755 35.568 95.1435 35.184C95.9115 34.8 96.5195 34.2773 96.9675 33.616C97.4368 32.9333 97.7035 32.1547 97.7675 31.28L98.9195 31.824C98.9195 33.1253 98.6208 34.288 98.0235 35.312C97.4262 36.3147 96.5942 37.104 95.5275 37.68C94.4608 38.2347 93.2448 38.512 91.8795 38.512ZM107.541 38H103.957V14.96H107.541V38ZM114.494 38H110.91V22.032H114.494V38ZM112.702 18.736C112.084 18.736 111.55 18.5227 111.102 18.096C110.654 17.6693 110.43 17.1573 110.43 16.56C110.43 15.92 110.654 15.3867 111.102 14.96C111.55 14.5333 112.084 14.32 112.702 14.32C113.342 14.32 113.876 14.5333 114.302 14.96C114.75 15.3867 114.974 15.9093 114.974 16.528C114.974 17.1467 114.75 17.6693 114.302 18.096C113.876 18.5227 113.342 18.736 112.702 18.736ZM116.68 35.568L118.76 33.328C119.485 34.0747 120.339 34.6613 121.32 35.088C122.323 35.5147 123.368 35.728 124.456 35.728C125.565 35.728 126.451 35.5253 127.112 35.12C127.773 34.6933 128.104 34.1493 128.104 33.488C128.104 32.8907 127.805 32.432 127.208 32.112C126.632 31.7707 125.597 31.504 124.104 31.312C121.757 30.9707 120.051 30.4373 118.984 29.712C117.939 28.9653 117.416 27.9413 117.416 26.64C117.416 25.616 117.715 24.72 118.312 23.952C118.909 23.184 119.72 22.5867 120.744 22.16C121.768 21.7333 122.941 21.52 124.264 21.52C125.8 21.52 127.155 21.776 128.328 22.288C129.523 22.8 130.557 23.4933 131.432 24.368L129.352 26.64C128.691 25.9147 127.933 25.3387 127.08 24.912C126.227 24.4853 125.299 24.272 124.296 24.272C123.293 24.272 122.483 24.4747 121.864 24.88C121.245 25.264 120.936 25.7653 120.936 26.384C120.936 26.896 121.213 27.2907 121.768 27.568C122.344 27.824 123.347 28.048 124.776 28.24C127.123 28.5813 128.851 29.1467 129.96 29.936C131.069 30.704 131.624 31.8133 131.624 33.264C131.624 34.3093 131.315 35.2267 130.696 36.016C130.077 36.8053 129.224 37.424 128.136 37.872C127.048 38.2987 125.779 38.512 124.328 38.512C122.771 38.512 121.341 38.256 120.04 37.744C118.739 37.2107 117.619 36.4853 116.68 35.568ZM144.021 38H140.085C138.741 38 137.728 37.6587 137.045 36.976C136.363 36.272 136.021 35.2587 136.021 33.936V17.648H139.605V33.392C139.605 33.9467 139.733 34.3627 139.989 34.64C140.245 34.896 140.651 35.024 141.205 35.024H144.021V38ZM143.797 24.944H133.045V22.032H143.797V24.944Z" fill="#1E1E1E"/>
</svg>
