<svg width="611" height="444" viewBox="0 0 611 444" fill="none" xmlns="http://www.w3.org/2000/svg">
<path d="M66 387C76.9463 387 95.5082 387.018 108.313 379.94C124.318 371.094 130.573 358.851 135.081 351.077C139.588 343.302 149.798 323.999 175.003 324C184.478 324.001 198 324 198 324" stroke="#50C8CC" stroke-width="4" stroke-linecap="round"/>
<path d="M169 344C181.273 344 202.085 344.024 216.442 334.587C234.387 322.791 241.4 306.468 246.454 296.102C251.508 285.736 262.956 259.998 291.215 260C301.839 260.001 317 260 317 260" stroke="#50C8CC" stroke-width="4" stroke-linecap="round"/>
<path d="M287 283C301.512 283 326.121 283.032 343.096 270.226C364.316 254.217 372.609 232.064 378.584 217.996C384.56 203.928 398.096 168.997 431.511 169C444.073 169.001 462 169 462 169" stroke="#50C8CC" stroke-width="4" stroke-linecap="round"/>
<path d="M419 195C434.756 195 461.474 195.037 479.905 180.321C502.943 161.925 511.946 136.468 518.434 120.302C524.922 104.136 539.619 63.9971 575.898 64C589.537 64.0011 609 64 609 64" stroke="#50C8CC" stroke-width="4" stroke-linecap="round"/>
<line x1="51" y1="402" x2="51" y2="79" stroke="#1E1E1E" stroke-width="2"/>
<line x1="609" y1="403" x2="52" y2="403" stroke="#1E1E1E" stroke-width="2"/>
<path d="M38.288 31.728L40.752 34.192C39.7493 35.5147 38.4373 36.5707 36.816 37.36C35.216 38.128 33.4453 38.512 31.504 38.512C29.776 38.512 28.1867 38.2133 26.736 37.616C25.3067 37.0187 24.0587 36.1867 22.992 35.12C21.9467 34.0533 21.1253 32.7947 20.528 31.344C19.952 29.872 19.664 28.2827 19.664 26.576C19.664 24.848 19.9627 23.2587 20.56 21.808C21.1573 20.336 21.9893 19.0667 23.056 18C24.144 16.9333 25.4133 16.1013 26.864 15.504C28.3147 14.9067 29.8933 14.608 31.6 14.608C33.5413 14.608 35.3013 15.0027 36.88 15.792C38.4587 16.56 39.7493 17.6053 40.752 18.928L38.288 21.392C37.5413 20.304 36.6027 19.4507 35.472 18.832C34.3413 18.192 33.0507 17.872 31.6 17.872C30.064 17.872 28.688 18.256 27.472 19.024C26.256 19.7707 25.296 20.7947 24.592 22.096C23.888 23.3973 23.536 24.8907 23.536 26.576C23.536 28.24 23.888 29.7227 24.592 31.024C25.296 32.3253 26.256 33.36 27.472 34.128C28.688 34.8747 30.064 35.248 31.6 35.248C33.0507 35.248 34.3413 34.928 35.472 34.288C36.6027 33.648 37.5413 32.7947 38.288 31.728ZM51.0955 38.512C49.4102 38.512 47.9062 38.1493 46.5835 37.424C45.2822 36.6987 44.2582 35.696 43.5115 34.416C42.7648 33.136 42.3915 31.664 42.3915 30C42.3915 28.3573 42.7648 26.896 43.5115 25.616C44.2582 24.336 45.2822 23.3333 46.5835 22.608C47.9062 21.8827 49.4102 21.52 51.0955 21.52C52.8022 21.52 54.3062 21.8827 55.6075 22.608C56.9302 23.3333 57.9542 24.336 58.6795 25.616C59.4262 26.896 59.7995 28.3573 59.7995 30C59.7995 31.664 59.4262 33.136 58.6795 34.416C57.9542 35.696 56.9302 36.6987 55.6075 37.424C54.3062 38.1493 52.8022 38.512 51.0955 38.512ZM51.0955 35.504C52.0982 35.504 52.9728 35.2693 53.7195 34.8C54.4662 34.3307 55.0422 33.6907 55.4475 32.88C55.8742 32.048 56.0875 31.088 56.0875 30C56.0875 28.9333 55.8742 27.9947 55.4475 27.184C55.0422 26.352 54.4662 25.7013 53.7195 25.232C52.9728 24.7627 52.0982 24.528 51.0955 24.528C50.1142 24.528 49.2502 24.7627 48.5035 25.232C47.7568 25.7013 47.1702 26.352 46.7435 27.184C46.3382 27.9947 46.1355 28.9333 46.1355 30C46.1355 31.088 46.3382 32.048 46.7435 32.88C47.1702 33.6907 47.7568 34.3307 48.5035 34.8C49.2502 35.2693 50.1142 35.504 51.0955 35.504ZM88.1173 38H84.5333V28.688C84.5333 27.3013 84.2346 26.2667 83.6373 25.584C83.0613 24.88 82.2826 24.528 81.3013 24.528C80.5759 24.528 79.8933 24.7307 79.2533 25.136C78.6133 25.5413 78.0906 26.1707 77.6853 27.024C77.3013 27.8773 77.1093 28.9867 77.1093 30.352V38H73.5253V28.688C73.5253 27.3013 73.2266 26.2667 72.6293 25.584C72.0533 24.88 71.2746 24.528 70.2933 24.528C69.5679 24.528 68.8746 24.7307 68.2133 25.136C67.5733 25.5413 67.0506 26.1707 66.6453 27.024C66.2613 27.8773 66.0693 28.9867 66.0693 30.352V38H62.4853V22.032H66.0373V25.712L65.8133 25.68C66.1119 24.6133 66.5493 23.7813 67.1253 23.184C67.7013 22.5867 68.3519 22.16 69.0773 21.904C69.8026 21.648 70.5279 21.52 71.2533 21.52C72.6399 21.52 73.7919 21.904 74.7093 22.672C75.6266 23.4187 76.2346 24.528 76.5333 26L76.1173 26.032C76.4373 24.9013 76.9066 24.0053 77.5253 23.344C78.1653 22.6827 78.8906 22.2133 79.7013 21.936C80.5119 21.6587 81.3226 21.52 82.1333 21.52C84.0106 21.52 85.4719 22.1067 86.5173 23.28C87.5839 24.4533 88.1173 26.16 88.1173 28.4V38ZM94.8355 44.208H91.2515V22.032H94.8035V26.96H94.0355C94.1848 25.8933 94.5582 24.9547 95.1555 24.144C95.7528 23.3333 96.5208 22.6933 97.4595 22.224C98.3982 21.7547 99.4435 21.52 100.596 21.52C102.089 21.52 103.433 21.8827 104.628 22.608C105.844 23.3333 106.804 24.336 107.508 25.616C108.212 26.896 108.564 28.3573 108.564 30C108.564 31.664 108.201 33.136 107.476 34.416C106.772 35.696 105.812 36.6987 104.596 37.424C103.38 38.1493 102.004 38.512 100.468 38.512C99.0595 38.512 97.8435 38.224 96.8195 37.648C95.7955 37.0507 95.0168 36.2507 94.4835 35.248C93.9715 34.224 93.7582 33.0827 93.8435 31.824L94.5795 31.248C94.6862 32.08 94.9742 32.816 95.4435 33.456C95.9128 34.096 96.5208 34.5973 97.2675 34.96C98.0142 35.3227 98.8248 35.504 99.6995 35.504C100.745 35.504 101.641 35.2693 102.388 34.8C103.156 34.3307 103.753 33.68 104.18 32.848C104.606 32.016 104.82 31.0667 104.82 30C104.82 28.9547 104.617 28.016 104.212 27.184C103.806 26.352 103.23 25.7013 102.484 25.232C101.758 24.7627 100.894 24.528 99.8915 24.528C98.9102 24.528 98.0355 24.7733 97.2675 25.264C96.5208 25.7333 95.9235 26.3947 95.4755 27.248C95.0488 28.1013 94.8355 29.104 94.8355 30.256V44.208ZM119.301 38.512C117.615 38.512 116.111 38.1493 114.789 37.424C113.487 36.6987 112.463 35.696 111.717 34.416C110.97 33.136 110.597 31.664 110.597 30C110.597 28.3573 110.97 26.896 111.717 25.616C112.463 24.336 113.487 23.3333 114.789 22.608C116.111 21.8827 117.615 21.52 119.301 21.52C121.007 21.52 122.511 21.8827 123.813 22.608C125.135 23.3333 126.159 24.336 126.885 25.616C127.631 26.896 128.005 28.3573 128.005 30C128.005 31.664 127.631 33.136 126.885 34.416C126.159 35.696 125.135 36.6987 123.813 37.424C122.511 38.1493 121.007 38.512 119.301 38.512ZM119.301 35.504C120.303 35.504 121.178 35.2693 121.925 34.8C122.671 34.3307 123.247 33.6907 123.653 32.88C124.079 32.048 124.293 31.088 124.293 30C124.293 28.9333 124.079 27.9947 123.653 27.184C123.247 26.352 122.671 25.7013 121.925 25.232C121.178 24.7627 120.303 24.528 119.301 24.528C118.319 24.528 117.455 24.7627 116.709 25.232C115.962 25.7013 115.375 26.352 114.949 27.184C114.543 27.9947 114.341 28.9333 114.341 30C114.341 31.088 114.543 32.048 114.949 32.88C115.375 33.6907 115.962 34.3307 116.709 34.8C117.455 35.2693 118.319 35.504 119.301 35.504ZM145.666 38H142.114V34.928L142.082 34.032V22.032H145.666V38ZM142.338 31.248L143.074 31.856C143.138 33.1573 142.904 34.3093 142.37 35.312C141.837 36.3147 141.08 37.104 140.098 37.68C139.138 38.2347 138.008 38.512 136.706 38.512C134.829 38.512 133.325 37.9467 132.194 36.816C131.064 35.6853 130.498 34.0533 130.498 31.92V22.032H134.082V31.568C134.082 32.848 134.402 33.8293 135.042 34.512C135.682 35.1733 136.557 35.504 137.666 35.504C138.456 35.504 139.181 35.3227 139.842 34.96C140.525 34.5973 141.09 34.096 141.538 33.456C141.986 32.816 142.253 32.08 142.338 31.248ZM164.283 38H160.699V28.784C160.699 27.3547 160.379 26.288 159.739 25.584C159.099 24.88 158.235 24.528 157.147 24.528C156.358 24.528 155.611 24.7307 154.907 25.136C154.224 25.5413 153.67 26.1813 153.243 27.056C152.816 27.9307 152.603 29.0613 152.603 30.448V38H149.019V22.032H152.571V26.96H152.091C152.304 25.552 152.72 24.464 153.339 23.696C153.958 22.9067 154.683 22.352 155.515 22.032C156.347 21.6907 157.2 21.52 158.075 21.52C159.995 21.52 161.51 22.1067 162.619 23.28C163.728 24.4533 164.283 26.16 164.283 28.4V38ZM184.082 38H180.53V34.032L180.498 33.872V30.256C180.498 29.104 180.285 28.1013 179.858 27.248C179.432 26.3947 178.834 25.7333 178.066 25.264C177.32 24.7733 176.456 24.528 175.474 24.528C174.493 24.528 173.618 24.7627 172.85 25.232C172.104 25.7013 171.528 26.352 171.122 27.184C170.717 28.016 170.514 28.9547 170.514 30C170.514 31.0667 170.728 32.016 171.154 32.848C171.581 33.68 172.178 34.3307 172.946 34.8C173.714 35.2693 174.61 35.504 175.634 35.504C176.53 35.504 177.341 35.3227 178.066 34.96C178.813 34.5973 179.421 34.096 179.89 33.456C180.36 32.816 180.648 32.08 180.754 31.248L181.49 31.824C181.597 33.0827 181.384 34.224 180.85 35.248C180.317 36.2507 179.538 37.0507 178.514 37.648C177.49 38.224 176.274 38.512 174.866 38.512C173.352 38.512 171.976 38.1493 170.738 37.424C169.522 36.6987 168.552 35.696 167.826 34.416C167.122 33.136 166.77 31.664 166.77 30C166.77 28.3573 167.122 26.896 167.826 25.616C168.552 24.336 169.522 23.3333 170.738 22.608C171.954 21.8827 173.309 21.52 174.802 21.52C175.997 21.52 177.053 21.7547 177.97 22.224C178.909 22.672 179.666 23.3013 180.242 24.112C180.84 24.9227 181.213 25.872 181.362 26.96H180.498V14.96H184.082V38ZM190.979 38H187.395V22.032H190.979V38ZM189.187 18.736C188.569 18.736 188.035 18.5227 187.587 18.096C187.139 17.6693 186.915 17.1573 186.915 16.56C186.915 15.92 187.139 15.3867 187.587 14.96C188.035 14.5333 188.569 14.32 189.187 14.32C189.827 14.32 190.361 14.5333 190.787 14.96C191.235 15.3867 191.459 15.9093 191.459 16.528C191.459 17.1467 191.235 17.6693 190.787 18.096C190.361 18.5227 189.827 18.736 189.187 18.736ZM209.613 38H206.029V28.784C206.029 27.3547 205.709 26.288 205.069 25.584C204.429 24.88 203.565 24.528 202.477 24.528C201.688 24.528 200.941 24.7307 200.237 25.136C199.554 25.5413 199 26.1813 198.573 27.056C198.146 27.9307 197.933 29.0613 197.933 30.448V38H194.349V22.032H197.901V26.96H197.421C197.634 25.552 198.05 24.464 198.669 23.696C199.288 22.9067 200.013 22.352 200.845 22.032C201.677 21.6907 202.53 21.52 203.405 21.52C205.325 21.52 206.84 22.1067 207.949 23.28C209.058 24.4533 209.613 26.16 209.613 28.4V38ZM229.412 36.24C229.412 37.9253 229.028 39.3973 228.26 40.656C227.492 41.936 226.436 42.928 225.092 43.632C223.77 44.3573 222.244 44.72 220.516 44.72C219.002 44.72 217.604 44.464 216.324 43.952C215.044 43.4613 213.988 42.7787 213.156 41.904L215.236 39.504C215.855 40.208 216.58 40.752 217.412 41.136C218.266 41.5413 219.247 41.744 220.356 41.744C221.466 41.744 222.426 41.52 223.236 41.072C224.068 40.624 224.708 40.0053 225.156 39.216C225.604 38.4267 225.828 37.488 225.828 36.4V30.256C225.828 28.9973 225.594 27.952 225.124 27.12C224.655 26.2667 224.047 25.6267 223.3 25.2C222.554 24.752 221.722 24.528 220.804 24.528C219.823 24.528 218.959 24.7627 218.212 25.232C217.466 25.7013 216.879 26.3413 216.452 27.152C216.047 27.9413 215.844 28.8373 215.844 29.84C215.844 30.864 216.058 31.7707 216.484 32.56C216.911 33.3493 217.508 33.968 218.276 34.416C219.044 34.864 219.94 35.088 220.964 35.088C221.839 35.088 222.639 34.9173 223.364 34.576C224.111 34.2133 224.719 33.712 225.188 33.072C225.679 32.432 225.978 31.696 226.084 30.864L226.852 31.44C226.959 32.6987 226.735 33.84 226.18 34.864C225.647 35.8667 224.858 36.6667 223.812 37.264C222.788 37.84 221.583 38.128 220.196 38.128C218.682 38.128 217.306 37.7867 216.068 37.104C214.852 36.4 213.882 35.4293 213.156 34.192C212.452 32.9333 212.1 31.4933 212.1 29.872C212.1 28.2293 212.463 26.7893 213.188 25.552C213.914 24.2933 214.884 23.312 216.1 22.608C217.316 21.8827 218.66 21.52 220.132 21.52C221.263 21.52 222.276 21.7333 223.172 22.16C224.09 22.5867 224.847 23.2053 225.444 24.016C226.063 24.8267 226.458 25.808 226.628 26.96H225.86V22.032H229.412V36.24Z" fill="#1E1E1E"/>
<path d="M35 145.108L35 147.676L32.576 147.676L32.696 147.388C33.544 147.948 34.208 148.724 34.688 149.716C35.152 150.692 35.384 151.788 35.384 153.004C35.384 154.268 35.168 155.436 34.736 156.508C34.288 157.58 33.664 158.516 32.864 159.316C32.064 160.116 31.12 160.74 30.032 161.188C28.928 161.62 27.72 161.836 26.408 161.836C25.128 161.836 23.944 161.612 22.856 161.164C21.768 160.716 20.824 160.084 20.024 159.268C19.208 158.452 18.576 157.492 18.128 156.388C17.68 155.284 17.456 154.084 17.456 152.788C17.456 151.284 17.752 149.924 18.344 148.708C18.92 147.476 19.704 146.476 20.696 145.708L22.544 147.556C21.728 148.132 21.088 148.868 20.624 149.764C20.144 150.644 19.904 151.652 19.904 152.788C19.904 153.972 20.192 155.036 20.768 155.98C21.328 156.908 22.096 157.636 23.072 158.164C24.048 158.692 25.16 158.956 26.408 158.956C27.672 158.956 28.8 158.692 29.792 158.164C30.784 157.62 31.56 156.884 32.12 155.956C32.68 155.012 32.96 153.932 32.96 152.716C32.96 151.516 32.704 150.452 32.192 149.524C31.664 148.58 30.936 147.9 30.008 147.484L30.944 147.7L28.04 147.7L28.04 152.932L25.784 152.932L25.784 145.108L35 145.108ZM22.808 135.636L25.304 135.636L25.304 136.212C25.304 136.948 25.464 137.604 25.784 138.18C26.104 138.756 26.6 139.212 27.272 139.548C27.944 139.884 28.824 140.052 29.912 140.052L35 140.052L35 142.74L23.024 142.74L23.024 140.076L26.888 140.076L26.888 140.436C25.848 140.276 25.032 139.964 24.44 139.5C23.848 139.036 23.432 138.492 23.192 137.868C22.936 137.244 22.808 136.62 22.808 135.996L22.808 135.636ZM35.384 128.383C35.384 129.647 35.112 130.775 34.568 131.767C34.024 132.743 33.272 133.511 32.312 134.071C31.352 134.631 30.248 134.911 29 134.911C27.768 134.911 26.672 134.631 25.712 134.071C24.752 133.511 24 132.743 23.456 131.767C22.912 130.775 22.64 129.647 22.64 128.383C22.64 127.103 22.912 125.975 23.456 124.999C24 124.007 24.752 123.239 25.712 122.695C26.672 122.135 27.768 121.855 29 121.855C30.248 121.855 31.352 122.135 32.312 122.695C33.272 123.239 34.024 124.007 34.568 124.999C35.112 125.975 35.384 127.103 35.384 128.383ZM33.128 128.383C33.128 127.631 32.952 126.975 32.6 126.415C32.248 125.855 31.768 125.423 31.16 125.119C30.536 124.799 29.816 124.639 29 124.639C28.2 124.639 27.496 124.799 26.888 125.119C26.264 125.423 25.776 125.855 25.424 126.415C25.072 126.975 24.896 127.631 24.896 128.383C24.896 129.119 25.072 129.767 25.424 130.327C25.776 130.887 26.264 131.327 26.888 131.647C27.496 131.951 28.2 132.103 29 132.103C29.816 132.103 30.536 131.951 31.16 131.647C31.768 131.327 32.248 130.887 32.6 130.327C32.952 129.767 33.128 129.119 33.128 128.383ZM35 106.349L35 109.133L25.4 112.181L25.4 111.485L35 114.533L35 117.317L23.024 121.085L23.024 118.397L33.464 115.445L33.464 116.213L23.024 112.973L23.024 110.597L33.464 107.357L33.464 108.125L23.024 105.197L23.024 102.581L35 106.349ZM35 93.6372L35 96.5892C35 97.5972 34.744 98.3572 34.232 98.8692C33.704 99.3812 32.944 99.6372 31.952 99.6372L19.736 99.6372L19.736 96.9492L31.544 96.9492C31.96 96.9492 32.272 96.8532 32.48 96.6612C32.672 96.4692 32.768 96.1652 32.768 95.7492L32.768 93.6372L35 93.6372ZM25.208 93.8052L25.208 101.869L23.024 101.869L23.024 93.8052L25.208 93.8052ZM35 80.3374L35 83.0254L28.088 83.0254C27.016 83.0254 26.216 83.2654 25.688 83.7454C25.16 84.2254 24.896 84.8734 24.896 85.6894C24.896 86.2814 25.048 86.8414 25.352 87.3694C25.656 87.8814 26.136 88.2974 26.792 88.6174C27.448 88.9374 28.296 89.0974 29.336 89.0974L35 89.0974L35 91.7854L17.72 91.7854L17.72 89.0974L26.72 89.0974L26.72 89.4574C25.664 89.2974 24.848 88.9934 24.272 88.5454C23.68 88.0814 23.264 87.5374 23.024 86.9134C22.768 86.2894 22.64 85.6494 22.64 84.9934C22.64 83.5534 23.08 82.4174 23.96 81.5854C24.84 80.7534 26.12 80.3374 27.8 80.3374L35 80.3374Z" fill="#1E1E1E"/>
<path d="M561.808 437H559.048V421.976H561.808V437ZM567.304 422.216H553.576V419.84H567.304V422.216ZM571.808 437H569.12V425.024H571.808V437ZM570.464 422.552C570 422.552 569.6 422.392 569.264 422.072C568.928 421.752 568.76 421.368 568.76 420.92C568.76 420.44 568.928 420.04 569.264 419.72C569.6 419.4 570 419.24 570.464 419.24C570.944 419.24 571.344 419.4 571.664 419.72C572 420.04 572.168 420.432 572.168 420.896C572.168 421.36 572 421.752 571.664 422.072C571.344 422.392 570.944 422.552 570.464 422.552ZM593.559 437H590.871V430.016C590.871 428.976 590.647 428.2 590.199 427.688C589.767 427.16 589.183 426.896 588.447 426.896C587.903 426.896 587.391 427.048 586.911 427.352C586.431 427.656 586.039 428.128 585.735 428.768C585.447 429.408 585.303 430.24 585.303 431.264V437H582.615V430.016C582.615 428.976 582.391 428.2 581.943 427.688C581.511 427.16 580.927 426.896 580.191 426.896C579.647 426.896 579.127 427.048 578.631 427.352C578.151 427.656 577.759 428.128 577.455 428.768C577.167 429.408 577.023 430.24 577.023 431.264V437H574.335V425.024H576.999V427.784L576.831 427.76C577.055 426.96 577.383 426.336 577.815 425.888C578.247 425.44 578.735 425.12 579.279 424.928C579.823 424.736 580.367 424.64 580.911 424.64C581.951 424.64 582.815 424.928 583.503 425.504C584.191 426.064 584.647 426.896 584.871 428L584.559 428.024C584.799 427.176 585.151 426.504 585.615 426.008C586.095 425.512 586.639 425.16 587.247 424.952C587.855 424.744 588.463 424.64 589.071 424.64C590.479 424.64 591.575 425.08 592.359 425.96C593.159 426.84 593.559 428.12 593.559 429.8V437ZM606.182 433.376L607.718 435.056C607.094 435.776 606.318 436.344 605.39 436.76C604.462 437.176 603.43 437.384 602.294 437.384C600.95 437.384 599.758 437.112 598.718 436.568C597.694 436.024 596.886 435.272 596.294 434.312C595.718 433.352 595.43 432.256 595.43 431.024C595.43 429.776 595.71 428.672 596.27 427.712C596.83 426.752 597.598 426 598.574 425.456C599.55 424.912 600.646 424.64 601.862 424.64C603.046 424.64 604.094 424.912 605.006 425.456C605.918 425.984 606.638 426.72 607.166 427.664C607.694 428.592 607.958 429.672 607.958 430.904V431.048H605.294V430.784C605.294 429.984 605.142 429.288 604.838 428.696C604.55 428.088 604.15 427.624 603.638 427.304C603.126 426.968 602.526 426.8 601.838 426.8C601.118 426.8 600.478 426.976 599.918 427.328C599.374 427.664 598.95 428.144 598.646 428.768C598.342 429.376 598.19 430.112 598.19 430.976C598.19 431.84 598.366 432.592 598.718 433.232C599.086 433.872 599.582 434.368 600.206 434.72C600.846 435.056 601.582 435.224 602.414 435.224C603.934 435.224 605.19 434.608 606.182 433.376ZM607.958 431.864H597.302V430.04H607.574L607.958 430.928V431.864Z" fill="#1E1E1E"/>
</svg>
