<svg width="60" height="45" viewBox="0 0 60 45" fill="none" xmlns="http://www.w3.org/2000/svg">
<path d="M3 19.0918C1.34315 19.0918 0 20.4349 0 22.0918C0 23.7487 1.34315 25.0918 3 25.0918V22.0918V19.0918ZM59.1213 24.2131C60.2929 23.0415 60.2929 21.142 59.1213 19.9705L40.0294 0.878593C38.8579 -0.29298 36.9584 -0.29298 35.7868 0.878593C34.6152 2.05017 34.6152 3.94966 35.7868 5.12123L52.7574 22.0918L35.7868 39.0624C34.6152 40.2339 34.6152 42.1334 35.7868 43.305C36.9584 44.4766 38.8579 44.4766 40.0294 43.305L59.1213 24.2131ZM3 22.0918V25.0918H57V22.0918V19.0918H3V22.0918Z" fill="#323535"/>
</svg>
