<svg width="215" height="40" viewBox="0 0 215 40" fill="none" xmlns="http://www.w3.org/2000/svg">
<g clip-path="url(#clip0_3922_13798)">
<path d="M57.8975 16.5213C59.2384 15.3964 59.9841 13.7851 59.9841 11.8745C59.9841 8.01503 57.0782 5.27881 52.6059 5.27881H43.9988V30.012H54.5436C59.3872 30.012 62.5171 26.9765 62.5171 22.8178C62.5171 19.7456 60.8033 17.459 57.8975 16.5229V16.5213ZM52.2346 8.76389C54.7308 8.76389 56.0349 10.076 56.0349 12.0618C56.0349 14.0475 54.7308 15.4348 52.2346 15.4348H47.8759V8.76549H52.2346V8.76389ZM54.2092 26.5253H47.8743V18.8431H54.2092C57.003 18.8431 58.5311 20.3792 58.5311 22.7026C58.5311 25.026 57.003 26.5253 54.2092 26.5253Z" fill="#001D23"/>
<path d="M73.9867 11.2009C70.8937 11.2009 68.1751 12.4378 66.2741 15.1356L68.5463 17.459C69.9992 15.7357 71.4905 14.7228 73.6139 14.7228C76.1101 14.7228 77.5262 16.1085 77.5262 18.6575V19.856H72.3466C68.2487 19.856 65.6021 21.8802 65.6021 25.1028C65.6021 28.3255 68.135 30.4233 71.9738 30.4233C74.5068 30.4233 76.5197 29.524 77.8238 27.9495V30.0104H81.4753V18.8831C81.4753 13.7867 78.3823 11.2009 73.9867 11.2009ZM72.7946 27.3894C71.0057 27.3894 69.5912 26.5654 69.5912 24.954C69.5912 23.4547 70.7465 22.7058 72.833 22.7058H77.5278V23.0435C77.5278 25.5541 75.366 27.391 72.7962 27.391L72.7946 27.3894Z" fill="#001D23"/>
<path d="M94.7629 11.2009C89.3608 11.2009 85.0757 15.3981 85.0757 20.7937C85.0757 26.1893 89.3608 30.4249 94.7629 30.4249C98.1903 30.4249 100.874 28.7383 102.475 26.1525L99.7185 24.0164C98.4896 25.7029 96.9614 26.7894 94.7997 26.7894C91.4458 26.7894 89.0616 24.2036 89.0616 20.7937C89.0616 17.3838 91.4458 14.8348 94.7997 14.8348C96.9982 14.8348 98.5264 15.9597 99.7185 17.6447L102.475 15.4717C100.911 12.8859 98.2287 11.1993 94.7629 11.1993V11.2009Z" fill="#001D23"/>
<path d="M106.069 30.012H109.982V1.90735H106.069V30.012ZM114.713 19.7072L122.091 11.6137H117.248L110.094 19.6704L118.03 30.012H122.725L114.715 19.7072H114.713Z" fill="#001D23"/>
<path d="M135.614 11.2009C132.931 11.2009 130.583 12.3258 129.242 14.2364V11.6138H125.591V36.7566H129.503V27.8007C130.919 29.4872 133.155 30.4233 135.614 30.4233C140.83 30.4233 144.594 26.3014 144.594 20.7921C144.594 15.2829 140.83 11.1993 135.614 11.1993V11.2009ZM134.98 26.8278C132.223 26.8278 129.466 24.954 129.466 20.7953C129.466 16.6366 132.26 14.7996 134.98 14.7996C138.147 14.7996 140.57 17.2734 140.57 20.8321C140.57 24.3908 138.11 26.8278 134.98 26.8278Z" fill="#001D23"/>
<path d="M156.139 11.2009C153.046 11.2009 150.327 12.4378 148.426 15.1356L150.698 17.459C152.151 15.7357 153.643 14.7228 155.766 14.7228C158.262 14.7228 159.678 16.1085 159.678 18.6575V19.856H154.499C150.401 19.856 147.754 21.8802 147.754 25.1028C147.754 28.3255 150.287 30.4233 154.126 30.4233C156.659 30.4233 158.672 29.524 159.976 27.9495V30.0104H163.627V18.8831C163.627 13.7867 160.534 11.2009 156.139 11.2009ZM154.947 27.3894C153.158 27.3894 151.742 26.5654 151.742 24.954C151.742 23.4547 152.897 22.7058 154.984 22.7058H159.678V23.0435C159.678 25.5541 157.517 27.391 154.947 27.391V27.3894Z" fill="#001D23"/>
<path d="M176.917 11.2009C171.515 11.2009 167.229 15.3981 167.229 20.7937C167.229 26.1893 171.515 30.4249 176.917 30.4249C180.344 30.4249 183.028 28.7383 184.629 26.1525L181.872 24.0164C180.643 25.7029 179.115 26.7894 176.953 26.7894C173.6 26.7894 171.215 24.2036 171.215 20.7937C171.215 17.3838 173.6 14.8348 176.953 14.8348C179.152 14.8348 180.68 15.9597 181.872 17.6447L184.629 15.4717C183.064 12.8859 180.381 11.1993 176.917 11.1993V11.2009Z" fill="#001D23"/>
<path d="M188.253 30.012H192.166V1.90735H188.253V30.012ZM196.897 19.7072L204.276 11.6137H199.432L192.278 19.6704L200.214 30.012H204.909L196.899 19.7072H196.897Z" fill="#001D23"/>
<path d="M162.554 34.9324C161.109 34.9324 159.976 36.0285 159.976 37.4574C159.976 38.8863 161.101 39.9824 162.554 39.9824C163.56 39.9824 164.413 39.4559 164.834 38.6943V37.3166H162.546V38.0126H164.05V38.5391C163.754 38.9839 163.25 39.2799 162.591 39.2799C161.523 39.2799 160.791 38.5023 160.791 37.451C160.791 36.3997 161.501 35.6508 162.546 35.6508C163.183 35.6508 163.664 35.9405 164.005 36.4205L164.575 35.9533C164.116 35.3084 163.412 34.9308 162.552 34.9308L162.554 34.9324Z" fill="#001D23"/>
<path d="M174.585 39.9024L173.119 37.8878C173.705 37.659 174.06 37.1549 174.06 36.5101C174.06 35.622 173.393 35.014 172.401 35.014H170.615V39.9024H171.401V38.0142H172.297L173.689 39.9024H174.585ZM171.401 35.71H172.387C172.942 35.71 173.254 36.0429 173.254 36.5165C173.254 36.9901 172.943 37.3166 172.387 37.3166H171.401V35.71Z" fill="#001D23"/>
<path d="M182.792 34.9324C181.37 34.9324 180.23 36.0285 180.23 37.4574C180.23 38.8863 181.363 39.9824 182.792 39.9824C184.221 39.9824 185.362 38.8943 185.362 37.4574C185.362 36.0205 184.207 34.9324 182.792 34.9324ZM182.8 35.6508C183.8 35.6508 184.556 36.4205 184.556 37.451C184.556 38.4815 183.8 39.2655 182.8 39.2655C181.8 39.2655 181.045 38.5023 181.045 37.451C181.045 36.3997 181.786 35.6508 182.8 35.6508Z" fill="#001D23"/>
<path d="M194.998 35.014H194.212V37.9758C194.212 38.8351 193.68 39.2639 192.998 39.2639C192.316 39.2639 191.769 38.8351 191.769 37.9758V35.014H190.983V37.9246C190.983 39.2287 191.835 39.984 192.998 39.984C194.161 39.984 194.998 39.2287 194.998 37.9246V35.014Z" fill="#001D23"/>
<path d="M203.25 35.014H201.466V39.9024H202.251V38.0142H203.252C204.244 38.0142 204.911 37.3918 204.911 36.5101C204.911 35.6284 204.244 35.014 203.252 35.014H203.25ZM203.236 35.71C203.799 35.71 204.103 36.0429 204.103 36.5165C204.103 36.9901 203.799 37.3166 203.236 37.3166H202.25V35.71H203.236Z" fill="#001D23"/>
<path d="M24.0051 15.998H0.00317383V40H24.0051V15.998Z" fill="#006058"/>
<path d="M0 0H16.0013C20.4176 0 24.0019 3.58429 24.0019 8.00064V16.0013H0V0Z" fill="#00C8B5"/>
<path d="M32.0024 23.9987V31.9993C32.0024 36.4157 28.4182 40 24.0018 40V15.998C28.4182 15.998 32.0024 19.5823 32.0024 23.9987Z" fill="#48CA2D"/>
<path d="M208.975 2.79702H207.43V6.80534H206.445V2.79702H204.908V1.90735H208.975V2.79702Z" fill="#001D23"/>
<path d="M214.333 1.90735V6.80534H213.348V4.23233L212.139 5.75566H211.819L210.609 4.23233V6.80534H209.625V1.90735H209.945L211.979 4.51716L214.013 1.90735H214.333Z" fill="#001D23"/>
</g>
<defs>
<clipPath id="clip0_3922_13798">
<rect width="214.332" height="40" fill="white"/>
</clipPath>
</defs>
</svg>
