<?xml version="1.0" encoding="utf-8"?>
<!-- Generator: Adobe Illustrator 27.1.1, SVG Export Plug-In . SVG Version: 6.00 Build 0)  -->
<svg version="1.1" xmlns="http://www.w3.org/2000/svg" xmlns:xlink="http://www.w3.org/1999/xlink" x="0px" y="0px"
	 viewBox="0 0 90.1 90" style="enable-background:new 0 0 90.1 90;" xml:space="preserve">
<style type="text/css">
	.st0{display:none;}
	.st1{display:inline;}
	.st2{fill:#FFFFFF;}
	.st3{display:inline;fill:#F4F4F4;}
	.st4{fill:#F4F4F4;}
</style>
<g id="Layer_1" class="st0">
	<g class="st1">
		<path class="st2" d="M74.5,44.6H17.3c-3.1,0-5.6-2.5-5.6-5.6V7.2c0-3.1,2.5-5.6,5.6-5.6h57.3c3.1,0,5.6,2.5,5.6,5.6V39
			C80.2,42.1,77.7,44.6,74.5,44.6z M17.3,3.6c-2,0-3.5,1.6-3.5,3.5v31.7c0,2,1.6,3.5,3.5,3.5h57.3c2,0,3.5-1.6,3.5-3.5V7.2
			c0-2-1.6-3.5-3.5-3.5H17.3V3.6z"/>
		<path class="st2" d="M73.9,40.2h-56c-0.6,0-1-0.4-1-1V6.9c0-0.6,0.4-1,1-1h56c0.6,0,1,0.4,1,1v32.3C75,39.8,74.5,40.2,73.9,40.2z
			 M19,38.1h53.9V7.9H19V38.1z"/>
		<path class="st2" d="M74.5,86.6H17.3c-3.1,0-5.6-2.5-5.6-5.6V48.1c0-3.1,2.5-5.6,5.6-5.6h57.3c3.1,0,5.6,2.5,5.6,5.6v32.8
			C80.2,84,77.7,86.6,74.5,86.6L74.5,86.6z M17.3,44.6c-2,0-3.5,1.6-3.5,3.5v32.8c0,2,1.6,3.5,3.5,3.5h57.3c2,0,3.5-1.6,3.5-3.5
			V48.1c0-2-1.6-3.5-3.5-3.5H17.3z"/>
		<path class="st2" d="M52.4,82.5H39.5c-1.6,0-2.9-1.2-2.9-2.9V75c0-1.6,1.2-2.9,2.9-2.9h12.9c1.6,0,2.9,1.2,2.9,2.9v4.6
			C55.3,81.1,53.9,82.5,52.4,82.5L52.4,82.5z M39.5,74.1c-0.4,0-0.8,0.3-0.8,0.8v4.6c0,0.4,0.3,0.8,0.8,0.8h12.9
			c0.4,0,0.8-0.3,0.8-0.8V75c0-0.4-0.3-0.8-0.8-0.8H39.5z"/>
		<path class="st2" d="M79.1,70H12.7c-0.6,0-1-0.4-1-1s0.4-1,1-1h66.4c0.6,0,1,0.4,1,1S79.7,70,79.1,70z"/>
		<path class="st2" d="M73.9,65.6h-56c-0.6,0-1-0.4-1-1V48.3c0-0.6,0.4-1,1-1h56c0.6,0,1,0.4,1,1v16.2C75,65.1,74.5,65.6,73.9,65.6z
			 M19,63.5h53.9V49.4H19V63.5z"/>
		<path class="st2" d="M22.1,65.2c-0.3,0-0.6-0.3-0.6-0.6V48.3c0-0.3,0.3-0.6,0.6-0.6c0.3,0,0.6,0.3,0.6,0.6v16.2
			C22.7,64.9,22.5,65.2,22.1,65.2L22.1,65.2z"/>
		<path class="st2" d="M26.5,65.2c-0.3,0-0.6-0.3-0.6-0.6l0-16.2c0-0.3,0.3-0.6,0.6-0.6c0.3,0,0.6,0.3,0.6,0.6v16.2
			C27.1,64.9,26.8,65.2,26.5,65.2L26.5,65.2z"/>
		<path class="st2" d="M30.7,65.2c-0.3,0-0.6-0.3-0.6-0.6V48.3c0-0.3,0.3-0.6,0.6-0.6c0.3,0,0.6,0.3,0.6,0.6v16.2
			C31.3,64.9,31.1,65.2,30.7,65.2L30.7,65.2z"/>
		<path class="st2" d="M35.1,65.2c-0.3,0-0.6-0.3-0.6-0.6V48.3c0-0.3,0.3-0.6,0.6-0.6c0.3,0,0.6,0.3,0.6,0.6v16.2
			C35.7,64.9,35.4,65.2,35.1,65.2L35.1,65.2z"/>
		<path class="st2" d="M39.5,65.2c-0.3,0-0.6-0.3-0.6-0.6l0-16.2c0-0.3,0.3-0.6,0.6-0.6c0.3,0,0.6,0.3,0.6,0.6v16.2
			C40.1,64.9,39.8,65.2,39.5,65.2L39.5,65.2z"/>
		<path class="st2" d="M43.7,65.2c-0.3,0-0.6-0.3-0.6-0.6V48.3c0-0.3,0.3-0.6,0.6-0.6c0.3,0,0.6,0.3,0.6,0.6v16.2
			C44.4,64.9,44.1,65.2,43.7,65.2L43.7,65.2z"/>
		<path class="st2" d="M48.1,65.2c-0.3,0-0.6-0.3-0.6-0.6V48.3c0-0.3,0.3-0.6,0.6-0.6c0.3,0,0.6,0.3,0.6,0.6v16.2
			C48.7,64.9,48.4,65.2,48.1,65.2L48.1,65.2z"/>
		<path class="st2" d="M52.5,65.2c-0.3,0-0.6-0.3-0.6-0.6l0-16.2c0-0.3,0.3-0.6,0.6-0.6c0.3,0,0.6,0.3,0.6,0.6v16.2
			C53.1,64.9,52.8,65.2,52.5,65.2L52.5,65.2z"/>
		<path class="st2" d="M56.7,65.2c-0.3,0-0.6-0.3-0.6-0.6V48.3c0-0.3,0.3-0.6,0.6-0.6c0.3,0,0.6,0.3,0.6,0.6v16.2
			C57.4,64.9,57.1,65.2,56.7,65.2L56.7,65.2z"/>
		<path class="st2" d="M61.1,65.2c-0.3,0-0.6-0.3-0.6-0.6V48.3c0-0.3,0.3-0.6,0.6-0.6c0.3,0,0.6,0.3,0.6,0.6v16.2
			C61.7,64.9,61.4,65.2,61.1,65.2L61.1,65.2z"/>
		<path class="st2" d="M65.4,65.2c-0.3,0-0.6-0.3-0.6-0.6V48.3c0-0.3,0.3-0.6,0.6-0.6c0.3,0,0.6,0.3,0.6,0.6v16.2
			C66,64.9,65.8,65.2,65.4,65.2L65.4,65.2z"/>
		<path class="st2" d="M69.8,65.2c-0.3,0-0.6-0.3-0.6-0.6V48.3c0-0.3,0.3-0.6,0.6-0.6c0.3,0,0.6,0.3,0.6,0.6v16.2
			C70.4,64.9,70.1,65.2,69.8,65.2L69.8,65.2z"/>
		<path class="st2" d="M73.9,53.2h-56c-0.3,0-0.6-0.3-0.6-0.6c0-0.3,0.3-0.6,0.6-0.6h56c0.3,0,0.6,0.3,0.6,0.6S74.2,53.2,73.9,53.2z
			"/>
		<path class="st2" d="M73.9,57.1h-56c-0.3,0-0.6-0.3-0.6-0.6c0-0.3,0.3-0.6,0.6-0.6h56c0.3,0,0.6,0.3,0.6,0.6
			C74.5,56.8,74.2,57.1,73.9,57.1z"/>
		<path class="st2" d="M73.9,61h-56c-0.3,0-0.6-0.3-0.6-0.6c0-0.3,0.3-0.6,0.6-0.6h56c0.3,0,0.6,0.3,0.6,0.6
			C74.5,60.7,74.2,61,73.9,61z"/>
		<path class="st2" d="M35.6,12.9H23.4c-0.6,0-1-0.4-1-1s0.4-1,1-1h12.2c0.6,0,1,0.4,1,1S36.2,12.9,35.6,12.9z"/>
		<path class="st2" d="M64.2,17.4H23.4c-0.6,0-1-0.4-1-1s0.4-1,1-1h40.8c0.6,0,1,0.4,1,1S64.9,17.4,64.2,17.4z"/>
		<path class="st2" d="M58.9,21.9H23.4c-0.6,0-1-0.4-1-1s0.4-1,1-1h35.5c0.6,0,1,0.4,1,1C60,21.5,59.6,21.9,58.9,21.9z"/>
		<path class="st2" d="M61.6,26.4H23.4c-0.6,0-1-0.4-1-1s0.4-1,1-1h38.2c0.6,0,1,0.4,1,1S62.2,26.4,61.6,26.4z"/>
		<path class="st2" d="M48.8,30.8H23.4c-0.6,0-1-0.4-1-1s0.4-1,1-1h25.4c0.6,0,1,0.4,1,1S49.4,30.8,48.8,30.8z"/>
		<path class="st2" d="M68.4,35.3h-8.1c-0.6,0-1-0.4-1-1c0-0.6,0.4-1,1-1h8.1c0.6,0,1,0.4,1,1C69.4,34.9,69,35.3,68.4,35.3z"/>
	</g>
</g>
<g id="Layer_3" class="st0">
	<path class="st3" d="M76.3,72.7C85,64.9,89.9,53.9,90,42.3C90,19,69.8,0,45,0S0,19,0,42.3s20.2,42.4,45,42.4c3.1,0,6.2-0.3,9.2-0.9
		l15.3,5.8c0.9,0.3,1.9,0.5,2.8,0.5l0-0.1c1.2,0,2.4-0.3,3.5-0.8c3.9-1.9,5.5-6.6,3.6-10.5L76.3,72.7z M71.1,73.2l3.8,7.6
		c0.6,1.1,0.4,2.4-0.4,3.2c-0.8,0.9-2.1,1.2-3.2,0.8l-16-6c-0.3-0.1-0.6-0.2-0.9-0.2v0c-0.2,0-0.3,0-0.5,0.1
		C51,79.4,48,79.7,45,79.7c-22.1,0-40-16.7-40-37.3S22.9,5,45,5s40,16.8,40,37.3c-0.1,10.8-5,21-13.3,27.8
		C70.8,70.9,70.5,72.1,71.1,73.2z"/>
	<path class="st3" d="M24.9,34.3c-4.7,0-8.5,3.8-8.5,8.5c0,4.7,3.8,8.5,8.5,8.5c4.7,0,8.5-3.8,8.5-8.5
		C33.4,38.2,29.6,34.3,24.9,34.3z M24.9,47.1c-2.3,0-4.2-1.9-4.2-4.2c0-2.3,1.9-4.3,4.2-4.3c2.3,0,4.3,1.9,4.3,4.3
		C29.1,45.2,27.2,47.1,24.9,47.1z"/>
	<path class="st3" d="M45,34.3c-4.7,0-8.5,3.8-8.5,8.5c0,4.7,3.8,8.5,8.5,8.5s8.5-3.8,8.5-8.5C53.5,38.2,49.7,34.3,45,34.3z
		 M45,47.1c-2.3,0-4.2-1.9-4.2-4.2c0-2.3,1.9-4.3,4.2-4.3s4.2,1.9,4.2,4.3C49.2,45.2,47.3,47.1,45,47.1z"/>
	<path class="st3" d="M65.1,34.3c-4.7,0-8.5,3.8-8.5,8.5c0,4.7,3.8,8.5,8.5,8.5c4.7,0,8.5-3.8,8.5-8.5
		C73.6,38.2,69.8,34.3,65.1,34.3z M65.1,47.1c-2.3,0-4.3-1.9-4.3-4.2c0-2.3,1.9-4.3,4.3-4.3c2.3,0,4.2,1.9,4.2,4.3
		C69.4,45.2,67.5,47.1,65.1,47.1z"/>
</g>
<g id="Layer_4">
	<path class="st4" d="M71.1,73.2c-0.5-1-0.2-2.3,0.6-3c8.4-6.8,13.2-17,13.3-27.8C85,21.7,67.1,5,45,5S5,21.7,5,42.3
		s18,37.3,40,37.3c3,0,6-0.3,8.9-0.9c0.2,0,0.3-0.1,0.5-0.1v0c0.3,0,0.6,0.1,0.9,0.2l16,6c1.1,0.4,2.4,0.1,3.2-0.8
		c0.8-0.9,1-2.2,0.4-3.2L71.1,73.2z M24.9,51.3c-4.7,0-8.5-3.8-8.5-8.5c0-4.7,3.8-8.5,8.5-8.5c4.7,0,8.5,3.8,8.5,8.5
		C33.4,47.5,29.6,51.3,24.9,51.3z M45,51.3c-4.7,0-8.5-3.8-8.5-8.5c0-4.7,3.8-8.5,8.5-8.5s8.5,3.8,8.5,8.5
		C53.5,47.5,49.7,51.3,45,51.3z M56.6,42.8c0-4.7,3.8-8.5,8.5-8.5c4.7,0,8.5,3.8,8.5,8.5c0,4.7-3.8,8.5-8.5,8.5
		C60.4,51.3,56.6,47.5,56.6,42.8z"/>
</g>
</svg>
