<?xml version="1.0" encoding="utf-8"?>
<!-- Generator: Adobe Illustrator 28.0.0, SVG Export Plug-In . SVG Version: 6.00 Build 0)  -->
<svg version="1.1" id="Layer_1" xmlns="http://www.w3.org/2000/svg" xmlns:xlink="http://www.w3.org/1999/xlink" x="0px" y="0px"
	 viewBox="0 0 100 100" style="enable-background:new 0 0 100 100;" xml:space="preserve">
<style type="text/css">
	.st0{display:none;}
	.st1{display:inline;}
	.st2{display:inline;fill:#323535;}
	.st3{fill:none;stroke:#FACD60;stroke-width:5;stroke-miterlimit:10;}
</style>
<g id="Layer_1_00000033365353813596348850000013201367028766585497_" class="st0">
	<g id="Layer_1_00000117669439415386877000000003136173227046710154_" class="st1">
		<polygon points="218.6,121.2 75.3,-22.1 75.3,-22.1 50.5,-46.9 50.4,-46.9 50.4,-47 25.6,-22.1 25.6,-22.1 -118.6,122.1 
			-93.8,147 50.5,2.8 50.5,2.8 193.8,146.1 		"/>
	</g>
	<path class="st2" d="M99.1,55.4L68.5,6.5c-0.2-0.3-0.6-0.5-1-0.3l0,0L36.8,19.8l-36.4,21c-0.4,0.2-0.5,0.7-0.3,1
		c0.1,0.1,0.2,0.3,0.3,0.3l0,0l6.9,4v26.2c0,0.3,0.2,0.6,0.4,0.7l17.7,10.2c0.3,0.1,0.6,0.1,0.8,0l9.9-5.7V89c0,0.3,0.2,0.6,0.4,0.7
		l17.7,10.2c0.1,0.1,0.3,0.1,0.4,0.1c0.1,0,0.3,0,0.4-0.1l36.4-21c0.3-0.1,0.4-0.4,0.4-0.7V60.5l6.9-4c0.2-0.1,0.3-0.3,0.4-0.5
		C99.2,55.8,99.2,55.6,99.1,55.4L99.1,55.4z M37.5,21.2l16.7-7.4L31,27.2l-16.7,7.4L37.5,21.2z M36.2,75.7l-9.5,5.5V64.8l9.5,5.5
		V75.7z M54.3,71.9c-0.2,0.1-0.4,0.4-0.4,0.7v25.2l-16.1-9.3V69.8c0-0.3-0.2-0.6-0.4-0.7l-11.1-6.4c-0.3-0.1-0.6-0.1-0.8,0
		c-0.3,0.1-0.4,0.4-0.4,0.7v17.8L9,71.9V45.7c0-0.3-0.2-0.6-0.4-0.7l-6-3.4L31.1,29l28.5,45.5l-4.5-2.6
		C54.8,71.7,54.5,71.7,54.3,71.9L54.3,71.9z M90.2,61.5v16.3l0,0l-34.7,20V74l6.1,3.5l0,0c0.1,0.1,0.3,0.1,0.4,0.1
		c0.1,0,0.3,0,0.4-0.1L90.2,61.5z M62.3,75.7L32.6,28.2L67.5,8l29.7,47.5L62.3,75.7z"/>
</g>
<g id="Layer_2_00000149341887204215786990000006017928133675466920_">
	<path class="st3" d="M52.3,89.8h15c2.7,0,4.8-2.2,4.8-4.8V48.3c0-1.5-0.7-2.8-1.8-3.7L44.6,24.4c-1.7-1.3-4.1-1.3-5.9,0L13.1,44.5
		c-1.2,0.9-1.8,2.3-1.8,3.7v36.7c0,2.7,2.2,4.8,4.8,4.8h15c2.7,0,4.8-2.2,4.8-4.8V68c0-0.9,0.7-1.7,1.7-1.7h8.5
		c0.9,0,1.7,0.7,1.7,1.7v17.1C47.5,87.6,49.6,89.8,52.3,89.8L52.3,89.8z"/>
</g>
</svg>
