<?xml version="1.0" encoding="utf-8"?>
<!-- Generator: Adobe Illustrator 28.1.0, SVG Export Plug-In . SVG Version: 6.00 Build 0)  -->
<svg version="1.1" id="Layer_1" xmlns="http://www.w3.org/2000/svg" xmlns:xlink="http://www.w3.org/1999/xlink" x="0px" y="0px"
	 viewBox="0 0 109 109" style="enable-background:new 0 0 109 109;" xml:space="preserve">
<style type="text/css">
	.st0{fill:#323535;}
</style>
<circle class="st0" cx="11.5" cy="11.5" r="2.9"/>
<circle class="st0" cx="20.1" cy="11.5" r="2.9"/>
<circle class="st0" cx="28.7" cy="11.5" r="2.9"/>
<circle class="st0" cx="37.3" cy="11.5" r="2.9"/>
<circle class="st0" cx="45.9" cy="11.5" r="2.9"/>
<circle class="st0" cx="54.5" cy="11.5" r="2.9"/>
<circle class="st0" cx="63.1" cy="11.5" r="2.9"/>
<circle class="st0" cx="71.7" cy="11.5" r="2.9"/>
<circle class="st0" cx="80.3" cy="11.5" r="2.9"/>
<circle class="st0" cx="28.7" cy="2.9" r="2.9"/>
<circle class="st0" cx="37.3" cy="2.9" r="2.9"/>
<circle class="st0" cx="45.9" cy="2.9" r="2.9"/>
<circle class="st0" cx="54.5" cy="2.9" r="2.9"/>
<circle class="st0" cx="63.1" cy="2.9" r="2.9"/>
<circle class="st0" cx="71.7" cy="2.9" r="2.9"/>
<circle class="st0" cx="80.3" cy="2.9" r="2.9"/>
<circle class="st0" cx="88.9" cy="11.5" r="2.9"/>
<circle class="st0" cx="97.5" cy="11.5" r="2.9"/>
<circle class="st0" cx="11.5" cy="20.1" r="2.9"/>
<circle class="st0" cx="20.1" cy="20.1" r="2.9"/>
<circle class="st0" cx="28.7" cy="20.1" r="2.9"/>
<circle class="st0" cx="37.3" cy="20.1" r="2.9"/>
<circle class="st0" cx="45.9" cy="20.1" r="2.9"/>
<circle class="st0" cx="54.5" cy="20.1" r="2.9"/>
<circle class="st0" cx="63.1" cy="20.1" r="2.9"/>
<circle class="st0" cx="71.7" cy="20.1" r="2.9"/>
<circle class="st0" cx="80.3" cy="20.1" r="2.9"/>
<circle class="st0" cx="88.9" cy="20.1" r="2.9"/>
<circle class="st0" cx="97.5" cy="20.1" r="2.9"/>
<circle class="st0" cx="11.5" cy="28.7" r="2.9"/>
<circle class="st0" cx="20.1" cy="28.7" r="2.9"/>
<circle class="st0" cx="28.7" cy="28.7" r="2.9"/>
<circle class="st0" cx="37.3" cy="28.7" r="2.9"/>
<circle class="st0" cx="45.9" cy="28.7" r="2.9"/>
<circle class="st0" cx="54.5" cy="28.7" r="2.9"/>
<circle class="st0" cx="63.1" cy="28.7" r="2.9"/>
<circle class="st0" cx="71.7" cy="28.7" r="2.9"/>
<circle class="st0" cx="80.3" cy="28.7" r="2.9"/>
<circle class="st0" cx="88.9" cy="28.7" r="2.9"/>
<circle class="st0" cx="97.5" cy="28.7" r="2.9"/>
<circle class="st0" cx="11.5" cy="37.3" r="2.9"/>
<circle class="st0" cx="20.1" cy="37.3" r="2.9"/>
<circle class="st0" cx="28.7" cy="37.3" r="2.9"/>
<circle class="st0" cx="37.3" cy="37.3" r="2.9"/>
<circle class="st0" cx="45.9" cy="37.3" r="2.9"/>
<circle class="st0" cx="54.5" cy="37.3" r="2.9"/>
<circle class="st0" cx="63.1" cy="37.3" r="2.9"/>
<circle class="st0" cx="71.7" cy="37.3" r="2.9"/>
<circle class="st0" cx="80.3" cy="37.3" r="2.9"/>
<circle class="st0" cx="88.9" cy="37.3" r="2.9"/>
<circle class="st0" cx="97.5" cy="37.3" r="2.9"/>
<circle class="st0" cx="11.5" cy="45.9" r="2.9"/>
<circle class="st0" cx="20.1" cy="45.9" r="2.9"/>
<circle class="st0" cx="28.7" cy="45.9" r="2.9"/>
<circle class="st0" cx="37.3" cy="45.9" r="2.9"/>
<circle class="st0" cx="45.9" cy="45.9" r="2.9"/>
<circle class="st0" cx="54.5" cy="45.9" r="2.9"/>
<circle class="st0" cx="63.1" cy="45.9" r="2.9"/>
<circle class="st0" cx="71.7" cy="45.9" r="2.9"/>
<circle class="st0" cx="80.3" cy="45.9" r="2.9"/>
<circle class="st0" cx="88.9" cy="45.9" r="2.9"/>
<circle class="st0" cx="97.5" cy="45.9" r="2.9"/>
<circle class="st0" cx="11.5" cy="54.5" r="2.9"/>
<circle class="st0" cx="20.1" cy="54.5" r="2.9"/>
<circle class="st0" cx="28.7" cy="54.5" r="2.9"/>
<circle class="st0" cx="37.3" cy="54.5" r="2.9"/>
<circle class="st0" cx="45.9" cy="54.5" r="2.9"/>
<circle class="st0" cx="54.5" cy="54.5" r="2.9"/>
<circle class="st0" cx="63.1" cy="54.5" r="2.9"/>
<circle class="st0" cx="71.7" cy="54.5" r="2.9"/>
<circle class="st0" cx="80.3" cy="54.5" r="2.9"/>
<circle class="st0" cx="88.9" cy="54.5" r="2.9"/>
<circle class="st0" cx="97.5" cy="54.5" r="2.9"/>
<circle class="st0" cx="11.5" cy="63.1" r="2.9"/>
<circle class="st0" cx="20.1" cy="63.1" r="2.9"/>
<circle class="st0" cx="28.7" cy="63.1" r="2.9"/>
<circle class="st0" cx="37.3" cy="63.1" r="2.9"/>
<circle class="st0" cx="45.9" cy="63.1" r="2.9"/>
<circle class="st0" cx="54.5" cy="63.1" r="2.9"/>
<circle class="st0" cx="63.1" cy="63.1" r="2.9"/>
<circle class="st0" cx="71.7" cy="63.1" r="2.9"/>
<circle class="st0" cx="80.3" cy="63.1" r="2.9"/>
<circle class="st0" cx="88.9" cy="63.1" r="2.9"/>
<circle class="st0" cx="97.5" cy="63.1" r="2.9"/>
<circle class="st0" cx="11.5" cy="71.7" r="2.9"/>
<circle class="st0" cx="20.1" cy="71.7" r="2.9"/>
<circle class="st0" cx="28.7" cy="71.7" r="2.9"/>
<circle class="st0" cx="37.3" cy="71.7" r="2.9"/>
<circle class="st0" cx="45.9" cy="71.7" r="2.9"/>
<circle class="st0" cx="54.5" cy="71.7" r="2.9"/>
<circle class="st0" cx="63.1" cy="71.7" r="2.9"/>
<circle class="st0" cx="71.7" cy="71.7" r="2.9"/>
<circle class="st0" cx="80.3" cy="71.7" r="2.9"/>
<circle class="st0" cx="88.9" cy="71.7" r="2.9"/>
<circle class="st0" cx="97.5" cy="71.7" r="2.9"/>
<circle class="st0" cx="11.5" cy="80.3" r="2.9"/>
<circle class="st0" cx="2.9" cy="28.7" r="2.9"/>
<circle class="st0" cx="2.9" cy="37.3" r="2.9"/>
<circle class="st0" cx="2.9" cy="45.9" r="2.9"/>
<circle class="st0" cx="2.9" cy="54.5" r="2.9"/>
<circle class="st0" cx="2.9" cy="63.1" r="2.9"/>
<circle class="st0" cx="2.9" cy="71.7" r="2.9"/>
<circle class="st0" cx="2.9" cy="80.3" r="2.9"/>
<circle class="st0" cx="20.1" cy="80.3" r="2.9"/>
<circle class="st0" cx="28.7" cy="80.3" r="2.9"/>
<circle class="st0" cx="37.3" cy="80.3" r="2.9"/>
<circle class="st0" cx="45.9" cy="80.3" r="2.9"/>
<circle class="st0" cx="54.5" cy="80.3" r="2.9"/>
<circle class="st0" cx="63.1" cy="80.3" r="2.9"/>
<circle class="st0" cx="71.7" cy="80.3" r="2.9"/>
<circle class="st0" cx="80.3" cy="80.3" r="2.9"/>
<circle class="st0" cx="88.9" cy="80.3" r="2.9"/>
<circle class="st0" cx="97.5" cy="80.3" r="2.9"/>
<circle class="st0" cx="106.1" cy="28.7" r="2.9"/>
<circle class="st0" cx="106.1" cy="37.3" r="2.9"/>
<circle class="st0" cx="106.1" cy="45.9" r="2.9"/>
<circle class="st0" cx="106.1" cy="54.5" r="2.9"/>
<circle class="st0" cx="106.1" cy="63.1" r="2.9"/>
<circle class="st0" cx="106.1" cy="71.7" r="2.9"/>
<circle class="st0" cx="106.1" cy="80.3" r="2.9"/>
<circle class="st0" cx="11.5" cy="88.9" r="2.9"/>
<circle class="st0" cx="20.1" cy="88.9" r="2.9"/>
<circle class="st0" cx="28.7" cy="88.9" r="2.9"/>
<circle class="st0" cx="37.3" cy="88.9" r="2.9"/>
<circle class="st0" cx="45.9" cy="88.9" r="2.9"/>
<circle class="st0" cx="54.5" cy="88.9" r="2.9"/>
<circle class="st0" cx="63.1" cy="88.9" r="2.9"/>
<circle class="st0" cx="71.7" cy="88.9" r="2.9"/>
<circle class="st0" cx="80.3" cy="88.9" r="2.9"/>
<circle class="st0" cx="88.9" cy="88.9" r="2.9"/>
<circle class="st0" cx="97.5" cy="88.9" r="2.9"/>
<circle class="st0" cx="11.5" cy="97.5" r="2.9"/>
<circle class="st0" cx="20.1" cy="97.5" r="2.9"/>
<circle class="st0" cx="28.7" cy="97.5" r="2.9"/>
<circle class="st0" cx="37.3" cy="97.5" r="2.9"/>
<circle class="st0" cx="45.9" cy="97.5" r="2.9"/>
<circle class="st0" cx="54.5" cy="97.5" r="2.9"/>
<circle class="st0" cx="63.1" cy="97.5" r="2.9"/>
<circle class="st0" cx="71.7" cy="97.5" r="2.9"/>
<circle class="st0" cx="80.3" cy="97.5" r="2.9"/>
<circle class="st0" cx="28.7" cy="106.1" r="2.9"/>
<circle class="st0" cx="37.3" cy="106.1" r="2.9"/>
<circle class="st0" cx="45.9" cy="106.1" r="2.9"/>
<circle class="st0" cx="54.5" cy="106.1" r="2.9"/>
<circle class="st0" cx="63.1" cy="106.1" r="2.9"/>
<circle class="st0" cx="71.7" cy="106.1" r="2.9"/>
<circle class="st0" cx="80.3" cy="106.1" r="2.9"/>
<circle class="st0" cx="88.9" cy="97.5" r="2.9"/>
<circle class="st0" cx="97.5" cy="97.5" r="2.9"/>
</svg>
